<?xml version="1.0" encoding="UTF-8" standalone="no"?>
<svg
   xmlns:dc="http://purl.org/dc/elements/1.1/"
   xmlns:cc="http://creativecommons.org/ns#"
   xmlns:rdf="http://www.w3.org/1999/02/22-rdf-syntax-ns#"
   xmlns:svg="http://www.w3.org/2000/svg"
   xmlns="http://www.w3.org/2000/svg"
   xmlns:sodipodi="http://sodipodi.sourceforge.net/DTD/sodipodi-0.dtd"
   xmlns:inkscape="http://www.inkscape.org/namespaces/inkscape"
   sodipodi:docname="icon.svg"
   inkscape:version="1.0 (4035a4fb49, 2020-05-01)"
   id="svg8"
   version="1.1"
   viewBox="0 0 15.875004 16.139584"
   height="16.139584mm"
   width="15.875004mm">
  <defs
     id="defs2" />
  <sodipodi:namedview
     fit-margin-bottom="0"
     fit-margin-right="0"
     fit-margin-left="0"
     fit-margin-top="0"
     inkscape:snap-page="false"
     inkscape:window-maximized="1"
     inkscape:window-y="-8"
     inkscape:window-x="-8"
     inkscape:window-height="1017"
     inkscape:window-width="1920"
     showgrid="false"
     inkscape:document-rotation="0"
     inkscape:current-layer="layer1"
     inkscape:document-units="mm"
     inkscape:cy="47.589435"
     inkscape:cx="28.349362"
     inkscape:zoom="11.2"
     inkscape:pageshadow="2"
     inkscape:pageopacity="0.0"
     borderopacity="1.0"
     bordercolor="#666666"
     pagecolor="#ffffff"
     id="base" />
  <metadata
     id="metadata5">
    <rdf:RDF>
      <cc:Work
         rdf:about="">
        <dc:format>image/svg+xml</dc:format>
        <dc:type
           rdf:resource="http://purl.org/dc/dcmitype/StillImage" />
        <dc:title></dc:title>
      </cc:Work>
    </rdf:RDF>
  </metadata>
  <g
     transform="translate(-80.877449,-209.01138)"
     id="layer1"
     inkscape:groupmode="layer"
     inkscape:label="Layer 1">
    <rect
       y="209.01138"
       x="80.877449"
       height="16.13958"
       width="15.875"
       id="rect36"
       style="fill:#ffffff;fill-opacity:1;fill-rule:evenodd;stroke-width:0.264583" />
    <path
       sodipodi:nodetypes="cccccccccccccccccccccccccccccccccccccccccccccccccccccc"
       id="path32"
       d="m 80.877453,209.01138 v 12.96458 h 0.264583 c 0.986367,-1.34503 2.710365,-1.05833 4.233333,-1.05833 -0.289798,-1.57324 -0.463894,-3.27652 1.058334,-4.23333 -0.885323,2.40297 -0.505381,3.15566 0,5.55625 -2.416149,-1.33525 -3.133805,-0.70123 -5.55625,0 v 0.26458 h 6.085416 l 0.264584,-8.99583 h 0.529167 l 0.264583,9.78958 h -7.14375 v 0.52917 h 7.408333 v -12.96459 h 1.058334 v 12.96459 h 7.408333 v -0.52917 h -7.14375 l 0.264583,-9.78958 h 0.529167 l 0.264583,8.99583 h 6.085417 v -0.26458 c -2.422446,-0.70123 -3.140101,-1.33525 -5.55625,0 0.505381,-2.40057 0.885322,-3.15328 0,-5.55625 1.522227,0.95681 1.348131,2.66009 1.058333,4.23333 1.522969,0 3.246967,-0.2867 4.233334,1.05833 h 0.264583 v -12.96458 h -15.875 m 5.55625,8.73125 v 2.91042 h -0.264584 l 0.264584,-2.91042 m 5.027083,0 v 3.175 h -0.264583 l 0.264583,-3.175 m -5.820833,4.23333 v 0.26459 h -3.704167 c 0.843121,-0.88144 2.580772,-0.58979 3.704167,-0.26459 m 10.054167,0 v 0.26459 h -3.704167 c 0.843121,-0.88144 2.580772,-0.58979 3.704167,-0.26459 m -14.816667,2.64584 v 0.52916 h 15.875 v -0.52916 z"
       style="fill:#0055a5;stroke:none;stroke-width:0.264583;fill-opacity:1" />
  </g>
</svg>
